<mxfile host="app.diagrams.net" modified="2024-01-31T13:41:34.260Z" agent="Mozilla/5.0 (Windows NT 10.0; Win64; x64) AppleWebKit/537.36 (KHTML, like Gecko) Chrome/121.0.0.0 Safari/537.36" etag="D_8BMTqwWTs8kNDQ2Mmu" version="23.0.2" type="github">
  <diagram name="หน้า-1" id="kOQOVN3JmXbV0Z-fnUJ_">
    <mxGraphModel dx="1434" dy="772" grid="1" gridSize="10" guides="1" tooltips="1" connect="1" arrows="1" fold="1" page="1" pageScale="1" pageWidth="850" pageHeight="1100" math="0" shadow="0">
      <root>
        <mxCell id="0" />
        <mxCell id="1" parent="0" />
        <mxCell id="3zOsAFZYcC4wl87ufF2I-1" value="" style="rounded=0;whiteSpace=wrap;html=1;" vertex="1" parent="1">
          <mxGeometry x="100" y="330" width="620" height="60" as="geometry" />
        </mxCell>
        <mxCell id="3zOsAFZYcC4wl87ufF2I-2" value="" style="endArrow=classic;startArrow=classic;html=1;rounded=0;exitX=0.092;exitY=-0.05;exitDx=0;exitDy=0;exitPerimeter=0;" edge="1" parent="1" source="3zOsAFZYcC4wl87ufF2I-1">
          <mxGeometry width="50" height="50" relative="1" as="geometry">
            <mxPoint x="160" y="310" as="sourcePoint" />
            <mxPoint x="157" y="240" as="targetPoint" />
          </mxGeometry>
        </mxCell>
        <mxCell id="3zOsAFZYcC4wl87ufF2I-3" value="" style="rounded=1;whiteSpace=wrap;html=1;" vertex="1" parent="1">
          <mxGeometry x="100" y="180" width="120" height="60" as="geometry" />
        </mxCell>
        <mxCell id="3zOsAFZYcC4wl87ufF2I-4" value="" style="endArrow=classic;startArrow=classic;html=1;rounded=0;exitX=0.335;exitY=-0.037;exitDx=0;exitDy=0;exitPerimeter=0;" edge="1" parent="1">
          <mxGeometry width="50" height="50" relative="1" as="geometry">
            <mxPoint x="320.70000000000005" y="327.78" as="sourcePoint" />
            <mxPoint x="320" y="240" as="targetPoint" />
          </mxGeometry>
        </mxCell>
        <mxCell id="3zOsAFZYcC4wl87ufF2I-5" value="" style="rounded=1;whiteSpace=wrap;html=1;" vertex="1" parent="1">
          <mxGeometry x="263" y="180" width="120" height="60" as="geometry" />
        </mxCell>
        <mxCell id="3zOsAFZYcC4wl87ufF2I-8" value="" style="endArrow=classic;startArrow=classic;html=1;rounded=0;exitX=0.092;exitY=-0.05;exitDx=0;exitDy=0;exitPerimeter=0;" edge="1" parent="1">
          <mxGeometry width="50" height="50" relative="1" as="geometry">
            <mxPoint x="482" y="327" as="sourcePoint" />
            <mxPoint x="482" y="240" as="targetPoint" />
          </mxGeometry>
        </mxCell>
        <mxCell id="3zOsAFZYcC4wl87ufF2I-9" value="" style="rounded=1;whiteSpace=wrap;html=1;" vertex="1" parent="1">
          <mxGeometry x="425" y="180" width="120" height="60" as="geometry" />
        </mxCell>
        <mxCell id="3zOsAFZYcC4wl87ufF2I-10" value="" style="endArrow=classic;startArrow=classic;html=1;rounded=0;exitX=0.092;exitY=-0.05;exitDx=0;exitDy=0;exitPerimeter=0;" edge="1" parent="1">
          <mxGeometry width="50" height="50" relative="1" as="geometry">
            <mxPoint x="647" y="327" as="sourcePoint" />
            <mxPoint x="647" y="240" as="targetPoint" />
          </mxGeometry>
        </mxCell>
        <mxCell id="3zOsAFZYcC4wl87ufF2I-11" value="" style="rounded=1;whiteSpace=wrap;html=1;" vertex="1" parent="1">
          <mxGeometry x="590" y="180" width="120" height="60" as="geometry" />
        </mxCell>
        <mxCell id="3zOsAFZYcC4wl87ufF2I-12" value="" style="endArrow=classic;startArrow=classic;html=1;rounded=0;exitX=0.092;exitY=-0.05;exitDx=0;exitDy=0;exitPerimeter=0;" edge="1" parent="1">
          <mxGeometry width="50" height="50" relative="1" as="geometry">
            <mxPoint x="319.57" y="477" as="sourcePoint" />
            <mxPoint x="319.57" y="390" as="targetPoint" />
          </mxGeometry>
        </mxCell>
        <mxCell id="3zOsAFZYcC4wl87ufF2I-13" value="" style="rounded=1;whiteSpace=wrap;html=1;" vertex="1" parent="1">
          <mxGeometry x="260" y="477" width="120" height="93" as="geometry" />
        </mxCell>
        <mxCell id="3zOsAFZYcC4wl87ufF2I-14" value="" style="endArrow=classic;startArrow=classic;html=1;rounded=0;exitX=0.092;exitY=-0.05;exitDx=0;exitDy=0;exitPerimeter=0;" edge="1" parent="1">
          <mxGeometry width="50" height="50" relative="1" as="geometry">
            <mxPoint x="484.57" y="477" as="sourcePoint" />
            <mxPoint x="484.57" y="390" as="targetPoint" />
          </mxGeometry>
        </mxCell>
        <mxCell id="3zOsAFZYcC4wl87ufF2I-15" value="" style="rounded=1;whiteSpace=wrap;html=1;" vertex="1" parent="1">
          <mxGeometry x="425" y="477" width="120" height="93" as="geometry" />
        </mxCell>
        <mxCell id="3zOsAFZYcC4wl87ufF2I-16" value="" style="endArrow=none;html=1;rounded=0;exitX=0;exitY=0.5;exitDx=0;exitDy=0;entryX=1;entryY=0.5;entryDx=0;entryDy=0;" edge="1" parent="1">
          <mxGeometry width="50" height="50" relative="1" as="geometry">
            <mxPoint x="260.0000000000001" y="523.31" as="sourcePoint" />
            <mxPoint x="380.0000000000001" y="523.31" as="targetPoint" />
          </mxGeometry>
        </mxCell>
        <mxCell id="3zOsAFZYcC4wl87ufF2I-17" value="" style="endArrow=none;html=1;rounded=0;exitX=0;exitY=0.5;exitDx=0;exitDy=0;entryX=1;entryY=0.5;entryDx=0;entryDy=0;" edge="1" parent="1">
          <mxGeometry width="50" height="50" relative="1" as="geometry">
            <mxPoint x="425.0000000000001" y="523.31" as="sourcePoint" />
            <mxPoint x="545.0000000000001" y="523.31" as="targetPoint" />
          </mxGeometry>
        </mxCell>
        <mxCell id="3zOsAFZYcC4wl87ufF2I-18" value="&amp;nbsp;Web&amp;nbsp;&lt;br&gt;Server" style="text;html=1;strokeColor=none;fillColor=none;align=center;verticalAlign=middle;whiteSpace=wrap;rounded=0;" vertex="1" parent="1">
          <mxGeometry x="277.5" y="485" width="85" height="30" as="geometry" />
        </mxCell>
        <mxCell id="3zOsAFZYcC4wl87ufF2I-19" value="&amp;nbsp;Database&lt;br&gt;Server" style="text;html=1;strokeColor=none;fillColor=none;align=center;verticalAlign=middle;whiteSpace=wrap;rounded=0;" vertex="1" parent="1">
          <mxGeometry x="442.5" y="485" width="85" height="30" as="geometry" />
        </mxCell>
        <mxCell id="3zOsAFZYcC4wl87ufF2I-20" value="Photo and info" style="text;html=1;strokeColor=none;fillColor=none;align=center;verticalAlign=middle;whiteSpace=wrap;rounded=0;" vertex="1" parent="1">
          <mxGeometry x="290" y="530" width="60" height="30" as="geometry" />
        </mxCell>
        <mxCell id="3zOsAFZYcC4wl87ufF2I-21" value="Record" style="text;html=1;strokeColor=none;fillColor=none;align=center;verticalAlign=middle;whiteSpace=wrap;rounded=0;" vertex="1" parent="1">
          <mxGeometry x="455" y="530" width="60" height="30" as="geometry" />
        </mxCell>
      </root>
    </mxGraphModel>
  </diagram>
</mxfile>
